<?xml version="1.0" encoding="UTF-8"?> <svg xmlns="http://www.w3.org/2000/svg" xmlns:xlink="http://www.w3.org/1999/xlink" width="" height="90px" viewBox="0 0 422 90" version="1.1"><title>logo-cinegomobile</title><g id="Page-1" stroke="none" stroke-width="1" fill="none" fill-rule="evenodd"><g id="logo-cinegomobile" transform="translate(0.000000, 0.000000)" fill-rule="nonzero"><rect id="Rectangle" fill="#FFFFFF" x="0" y="0" width="421.927185" height="89.9972535"></rect><g id="Group" transform="translate(216.013184, 27.718505)" fill="#262447"><polygon id="Path" points="0 3.90312783e-15 18.9898682 19.0447998 37.9797363 0 37.9797363 38.5153198 29.3966675 38.5153198 29.3966675 19.838562 18.9898682 30.2481079 8.58306884 19.838562 8.58306884 38.5153198 0 38.5153198"></polygon><path d="M43.3932496,19.4732666 C43.3932496,8.71847843 52.1117279,0 62.8665161,0 C73.6213042,0 82.3397827,8.71847843 82.3397827,19.4732666 C82.3397827,30.2280548 73.6213042,38.9465332 62.8665161,38.9465332 C52.1180004,38.9314051 43.4083776,30.2217822 43.3932496,19.4732666 Z M73.7017822,19.4732666 C73.7017822,13.3566285 69.0325927,8.26171875 62.8665161,8.26171875 C56.7004395,8.26171875 52.03125,13.3566285 52.03125,19.4732666 C52.03125,25.5899048 56.7004395,30.6848144 62.8665161,30.6848144 C69.0325927,30.6848144 73.7017822,25.5871582 73.7017822,19.4732666 Z" id="Shape"></path><path d="M87.7587891,0.428466797 L102.082214,0.428466797 C108.324579,0.449566233 113.37978,5.50476609 113.400879,11.7471314 C113.436519,14.2035055 112.467175,16.5678323 110.717468,18.2922364 C113.936462,20.00885 116.081543,23.1207276 116.081543,27.1966553 C116.081543,33.4725952 110.986634,38.5153198 104.545898,38.5153198 L87.7587891,38.5153198 L87.7587891,0.428466797 Z M101.115417,15.8230591 C103.422546,15.8230591 105.086975,14.161377 105.086975,12.0684814 C105.086975,9.97558593 103.414307,8.26171875 101.109924,8.26171875 L96.3363647,8.26171875 L96.3363647,15.8230591 L101.115417,15.8230591 Z M103.743896,30.6298828 C106.051025,30.6298828 107.715454,28.9682007 107.715454,26.8753052 C107.715454,24.7824097 106.051025,23.0657959 103.743896,23.0657959 L96.328125,23.0657959 L96.328125,30.6298828 L103.743896,30.6298828 Z" id="Shape"></path><polygon id="Path" points="121.063843 0.428466797 129.646912 0.428466797 129.646912 38.5153198 121.063843 38.5153198"></polygon><polygon id="Path" points="136.831971 0.428466797 145.41504 0.428466797 145.41504 29.9871826 160.221863 29.9871826 160.221863 38.5153198 136.831971 38.5153198"></polygon><polygon id="Path" points="164.616394 0.428466797 188.22052 0.428466797 188.22052 8.90441894 173.199463 8.90441894 173.199463 15.3424072 185.009765 15.3424072 185.009765 23.6013794 173.199463 23.6013794 173.199463 30.0393676 188.22052 30.0393676 188.22052 38.5153198 164.616394 38.5153198"></polygon></g><rect id="Rectangle" fill="#AD5D9A" x="208.339234" y="0" width="213.587952" height="89.9972535"></rect><g id="Group" transform="translate(214.936524, 27.718505)" fill="#262447"><polygon id="Path" points="4.76581869e-16 3.90312783e-15 18.9898682 19.0447998 37.9797363 0 37.9797363 38.5153198 29.3966675 38.5153198 29.3966675 19.838562 18.9898682 30.2481079 8.58306884 19.838562 8.58306884 38.5153198 4.76581869e-16 38.5153198"></polygon><path d="M43.3932496,19.4732666 C43.3932496,8.71847843 52.1117279,0 62.8665161,0 C73.6213042,0 82.3397827,8.71847843 82.3397827,19.4732666 C82.3397827,30.2280548 73.6213042,38.9465332 62.8665161,38.9465332 C52.1180004,38.9314051 43.4083776,30.2217822 43.3932496,19.4732666 Z M73.7017822,19.4732666 C73.7017822,13.3566285 69.0325927,8.26171875 62.8665161,8.26171875 C56.7004395,8.26171875 52.03125,13.3566285 52.03125,19.4732666 C52.03125,25.5899048 56.7004395,30.6848144 62.8665161,30.6848144 C69.0325927,30.6848144 73.7017822,25.5871582 73.7017822,19.4732666 L73.7017822,19.4732666 Z" id="Shape"></path><path d="M87.7532959,0.428466797 L102.076721,0.428466797 C108.31971,0.448068162 113.375785,5.5041427 113.395386,11.7471314 C113.431027,14.2035055 112.461683,16.5678323 110.711975,18.2922364 C113.930969,20.00885 116.078796,23.1207276 116.078796,27.1966553 C116.078796,33.4725952 110.98114,38.5153198 104.543152,38.5153198 L87.7532959,38.5153198 L87.7532959,0.428466797 Z M101.109924,15.8230591 C103.417053,15.8230591 105.081482,14.161377 105.081482,12.0684814 C105.081482,9.97558593 103.417053,8.26171875 101.109924,8.26171875 L96.3363647,8.26171875 L96.3363647,15.8230591 L101.109924,15.8230591 Z M103.738403,30.6298828 C106.045532,30.6298828 107.709961,28.9682007 107.709961,26.8753052 C107.709961,24.7824097 106.045532,23.0657959 103.738403,23.0657959 L96.3226319,23.0657959 L96.3226319,30.6298828 L103.738403,30.6298828 Z" id="Shape"></path><polygon id="Path" points="121.063843 0.428466797 129.646912 0.428466797 129.646912 38.5153198 121.063843 38.5153198"></polygon><polygon id="Path" points="136.831971 0.428466797 145.41504 0.428466797 145.41504 29.9871826 160.221863 29.9871826 160.221863 38.5153198 136.831971 38.5153198"></polygon><polygon id="Path" points="164.619141 0.428466797 188.22052 0.428466797 188.22052 8.90441894 173.20221 8.90441894 173.20221 15.3424072 185.012512 15.3424072 185.012512 23.6013794 173.20221 23.6013794 173.20221 30.0393676 188.22052 30.0393676 188.22052 38.5153198 164.619141 38.5153198"></polygon></g><rect id="Rectangle" fill="#262447" x="0" y="0" width="210.96222" height="90"></rect><g id="Group" transform="translate(18.676758, 15.177612)" fill="#AD5D9A"><polygon id="Path" points="88.0773926 12.4887085 112.148437 12.4887085 112.148437 21.1322022 96.8307495 21.1322022 96.8307495 27.6965332 108.866272 27.6965332 108.866272 36.1230469 96.8307495 36.1230469 96.8307495 42.6873779 112.148437 42.6873779 112.148437 51.3308716 88.0773926 51.3308716"></polygon><path d="M116.196899,31.90979 C116.21504,20.9497144 125.094614,12.068912 136.054688,12.0492554 C142.728882,12.0492554 147.983093,14.7299194 151.756897,19.3798828 L145.137634,24.7961426 C142.783814,21.8435669 140.213013,20.4757691 136.054688,20.4757691 C129.765015,20.4757691 125.005188,25.6723023 125.005188,31.90979 C125.005188,38.1472778 129.765015,43.3438111 136.054688,43.3438111 C139.229736,43.3438111 141.635743,42.7944946 143.550109,41.4212037 L143.550109,36.010437 L134.195251,36.010437 L137.91687,27.8063965 L152.031556,27.8063965 L152.031556,45.4229737 C148.200074,49.7982788 142.621765,51.7675781 136.054688,51.7675781 C125.095684,51.7479262 116.216551,42.8687931 116.196899,31.90979 Z" id="Path"></path><path d="M156.555175,31.90979 C156.554065,23.8764538 161.392522,16.6335655 168.814144,13.5588277 C176.235767,10.4840899 184.778802,12.1830984 190.459229,17.8635249 C196.139656,23.5439515 197.838664,32.0869875 194.763927,39.5086099 C191.689188,46.9302323 184.4463,51.768689 176.412964,51.7675785 C165.453961,51.7479262 156.574827,42.8687931 156.555175,31.90979 Z M187.46521,31.90979 C187.46521,25.6723023 182.705383,20.4757691 176.412964,20.4757691 C170.120544,20.4757691 165.344238,25.6723023 165.344238,31.90979 C165.344238,38.1472778 170.104065,43.3438111 176.393737,43.3438111 C182.68341,43.3438111 187.451477,38.1472778 187.451477,31.90979 L187.46521,31.90979 Z" id="Shape"></path><circle id="Oval" cx="43.7832641" cy="4.64172363" r="4.64172363"></circle><polygon id="Path" points="48.2354736 12.2579956 48.1860351 12.2579956 39.4326783 19.9731445 39.4326783 51.3253784 48.2354736 51.3253784"></polygon><path d="M30.6765747,37.7792358 C28.4676165,41.1384413 24.710378,43.153462 20.6900025,43.1350708 C16.5642644,43.199028 12.724259,41.0345974 10.6427062,37.4718817 C8.56115334,33.9091661 8.56115334,29.5011732 10.6427062,25.9384576 C12.724259,22.375742 16.5642644,20.2113113 20.6900025,20.2752685 C24.710378,20.2568773 28.4676165,22.271898 30.6765747,25.6311035 L30.6765747,14.798584 C27.6961411,12.8859018 24.2313631,11.864383 20.6900025,11.8542481 C9.2944336,11.8542481 0,20.7669067 0,31.7037964 C0,42.6406861 9.2944336,51.564331 20.6900025,51.564331 C24.2318143,51.5545987 27.696949,50.5320218 30.6765747,48.6172485 L30.6765747,37.7792358 Z" id="Path"></path><polygon id="Path" points="78.6401368 12.5491333 78.6401368 37.3727417 57.4942017 12.5491333"></polygon><polygon id="Path" points="57.4942017 51.2182617 57.4942017 27.2103882 78.6483765 51.2182617"></polygon></g></g></g></svg>
